<?xml version="1.0" encoding="UTF-8" standalone="no"?>
<!DOCTYPE svg PUBLIC "-//W3C//DTD SVG 1.1//EN" "http://www.w3.org/Graphics/SVG/1.1/DTD/svg11.dtd">
<svg version="1.1" xmlns="http://www.w3.org/2000/svg" xmlns:xlink="http://www.w3.org/1999/xlink" preserveAspectRatio="xMidYMid meet" viewBox="489.7776433512327 190.0127567669583 263.47362987931007 251.46026189387513" width="263.47" height="251.46"><defs><path d="M636.52 264.1C642.47 265.26 648.59 263.21 652.64 258.7C657.03 253.81 659.37 251.2 662.68 247.51C670.18 239.15 681.14 234.75 692.33 235.61C694.88 235.8 688.78 235.34 692.33 235.61C699.75 236.17 705.76 241.86 706.71 249.24C707.15 252.59 706.24 245.61 706.54 247.87C708.05 259.52 705.15 271.31 698.4 280.93C694.88 285.94 699.95 278.72 697.72 281.9C686.5 297.89 673.25 312.37 658.31 324.96C652.38 329.96 637.55 342.45 613.83 362.44L584.2 386.03C582.23 388.37 581 389.83 580.51 390.42C574.51 397.55 572.71 407.32 575.78 416.12C576.89 419.31 574.79 413.28 575.78 416.12C579.29 426.19 587.17 434.13 597.21 437.72C599.65 438.59 592.47 436.03 595.26 437.02C604.6 440.37 614.51 441.85 624.42 441.39C628.36 441.21 623.24 441.45 626.7 441.29C638.29 440.75 649.82 439.28 661.17 436.87C664.98 436.06 674.53 434.04 689.81 430.8C714.75 425.7 730.34 422.52 736.57 421.24C741.37 420.26 745.86 418.16 749.69 415.12C751.71 413.51 748.53 416.05 749.69 415.12C754.69 411.15 754.37 403.47 749.08 399.92C749.08 399.92 749.08 399.92 749.08 399.92C749.08 399.92 749.08 399.92 749.08 399.92C740.44 396.82 731.26 395.55 722.11 396.17C718.8 396.4 710.54 396.96 697.32 397.87L618.66 407.1C629.41 398.62 636.13 393.32 638.81 391.2C638.81 391.2 691.15 349.11 691.15 349.11C694.17 346.62 685.95 353.36 691.15 349.11C701.22 340.85 710.6 331.8 719.21 322.03C722.56 318.22 722.38 318.43 726.4 313.87C732.74 306.67 737.79 298.43 741.31 289.51C743.74 283.37 740.9 290.55 742.13 287.44C749.47 268.86 750.39 248.37 744.76 229.2C743.56 225.13 745.18 230.64 743.12 223.6C740.32 214.1 734.02 206 725.49 200.96C721.65 198.69 724.08 200.13 720.41 197.96C711.18 192.51 700.59 189.76 689.86 190.03C685.33 190.15 687.7 190.09 683.05 190.21C672.67 190.47 662.56 193.58 653.81 199.2C650.82 201.12 655.99 197.8 653.19 199.6C643.67 205.72 634.93 212.97 627.17 221.2C624.86 223.64 628.52 219.77 625.93 222.5C619.49 229.33 616.77 238.87 618.65 248.07C619.18 250.68 618.05 245.14 618.65 248.07C620.26 255.97 626.47 262.13 634.39 263.68C636.73 264.14 633.48 263.51 636.52 264.1Z" id="a3ttJZwGww"></path><path d="M604.19 235.89C604.29 237.38 605.77 241.05 605.66 242.51C604.86 252.27 601.83 258.06 593.1 262.56C592.97 262.63 592.51 262.77 591.72 262.98C585.84 264.57 579.56 262.83 575.34 258.45C570.78 253.7 567.07 249.85 563.29 245.92C556.5 238.87 546.8 235.42 537.09 236.6C535.63 236.77 540.16 236.22 537.08 236.6C532.72 237.13 529.15 240.33 528.15 244.6C527.37 247.92 528.11 244.77 527.68 246.59C525.5 255.93 527.13 265.75 532.23 273.87C534.16 276.96 535.9 279.51 537.46 281.54C542.63 288.28 552.18 299.59 554.11 301.49C558.34 305.66 561.53 308.27 574.79 319.45C578.92 322.93 585.09 327.23 587.54 330.11C588.98 331.82 589.91 332.87 590.33 333.26C594.64 337.39 597.35 342.9 598 348.83C598 348.83 598 348.83 598 348.83C598.25 351.57 597.57 354.72 593.1 357.56C588.52 360.46 585.31 361.57 582.19 361.6C577.88 361.65 576.36 361.71 571.96 359.6C566.91 357.19 560.29 352.81 552.11 346.47L527.6 325.01C516.48 313.54 509.53 306.37 506.75 303.5C501.01 297.58 496.8 290.36 494.48 282.45C492.75 276.55 494.09 281.12 493.11 277.77C488.37 261.61 488.69 244.37 494.03 228.39C495.24 224.8 492.82 232.02 494.57 226.8C498.11 216.19 505.15 207.09 514.53 201C517.59 199.02 511.88 202.73 514.84 200.81C524.5 194.54 536.09 191.98 547.49 193.6C550.92 194.09 544.68 193.2 548.4 193.73C559.07 195.25 569.2 199.36 577.9 205.71C579.83 207.12 576.35 204.58 579.28 206.72C584.77 210.73 589.93 215.18 594.69 220.03C596.03 221.39 593.43 218.75 594.9 220.25C599.15 224.58 602.31 229.85 604.12 235.63C604.16 235.77 604.18 235.85 604.19 235.89Z" id="cKArSr76z"></path></defs><g><g><g><use xlink:href="#a3ttJZwGww" opacity="1" fill="#000000" fill-opacity="1"></use><g><use xlink:href="#a3ttJZwGww" opacity="1" fill-opacity="0" stroke="#000000" stroke-width="1" stroke-opacity="1"></use></g></g><g><use xlink:href="#cKArSr76z" opacity="1" fill="#000000" fill-opacity="1"></use><g><use xlink:href="#cKArSr76z" opacity="1" fill-opacity="0" stroke="#000000" stroke-width="1" stroke-opacity="1"></use></g></g></g></g></svg>